# xmcd
#
# Track frame offsets: 
#        150
#        17499
#        33179
#        46157
#        61139
#        76456
#        90625
#        114063
#        130354
#        147981
#        165664
#        187797
#
# Disc length: 2854 seconds
#
# Revision: 3
# Processed by: cddbd v1.5.2PL0 Copyright (c) Steve Scherf et al.
# Submitted via: ExactAudioCopyFreeDBPlugin 1.0
#
DISCID=890b240c
DTITLE=Booker T (Jones) - Sound the Alarm
DYEAR=2013
DGENRE=Soul
TTITLE0=Sound the Alarm (ft Mayer Hawthorne)
TTITLE1=All Over the Place (ft Luke James)
TTITLE2=Fun
TTITLE3=Broken Heart (ft Jay James)
TTITLE4=Feel Good
TTITLE5=Gently (ft Anthony Hamilton)
TTITLE6=Austin City Blues (ft Gary Clark, Jr.)
TTITLE7=Can't Wait (ft Estelle)
TTITLE8=66 Impala (ft Poncho Sanchez and Sheila E.)
TTITLE9=Watch You Sleeping (ft Kori Withers)
TTITLE10=Your Love is No Love (ft Vintage Trouble)
TTITLE11=Father Son Blues (ft Ted Jones)
EXTD=
EXTT0=
EXTT1=
EXTT2=
EXTT3=
EXTT4=
EXTT5=
EXTT6=
EXTT7=
EXTT8=
EXTT9=
EXTT10=
EXTT11=
PLAYORDER=
